<?xml version="1.0" encoding="UTF-8"?>
<svg width="288px" height="294px" viewBox="0 0 288 294" version="1.1" xmlns="http://www.w3.org/2000/svg" xmlns:xlink="http://www.w3.org/1999/xlink">
    <g id="Page-1" stroke="none" stroke-width="1" fill="none" fill-rule="evenodd">
        <g id="1495238704_Hierarchy_organization_team_diagram_order_hierarchical_structure_teamwork" fill-rule="nonzero" fill="#000000">
            <g id="Layer_1">
                <g id="Group">
                    <path d="M261.60849,228.794891 L261.60849,182.421967 L150.110046,182.421967 L150.110046,125.386353 C181.8591,122.312469 206.681213,95.5696259 206.681213,63.0145264 C206.681213,28.3969117 178.617767,0.3334656 143.999542,0.3334656 C109.381928,0.3334656 81.3184815,28.3969116 81.3184815,63.0145264 C81.3184815,95.5690155 106.14061,122.312469 137.887833,125.386353 L137.887833,182.421967 L26.3899994,182.421967 L26.3899994,228.794891 L0.0663986,228.794891 L0.0663986,293.666779 L64.9376526,293.666779 L64.9376526,228.794891 L38.6122131,228.794891 L38.6122131,194.644196 L137.887833,194.644196 L137.887833,228.794891 L111.564209,228.794891 L111.564209,293.666779 L176.435486,293.666779 L176.435486,228.794891 L150.110046,228.794891 L150.110046,194.644196 L249.386261,194.644196 L249.386261,228.794891 L223.062042,228.794891 L223.062042,293.666779 L287.933319,293.666779 L287.933319,228.794891 L261.60849,228.794891 Z" id="Shape"></path>
                </g>
            </g>
        </g>
    </g>
</svg>