<?xml version="1.0" ?><svg enable-background="new 0 0 512 512" id="Layer_1" version="1.1" viewBox="0 0 512 512" xml:space="preserve" xmlns="http://www.w3.org/2000/svg" xmlns:xlink="http://www.w3.org/1999/xlink"><g><path d="M458.6666565,0.0000088H53.3333397c-29.4554024,0-53.3333321,23.8782539-53.3333321,53.3333321v405.333313   C0.0000088,488.1217346,23.8779373,512,53.3333397,512h405.333313C488.1217346,512,512,488.1217346,512,458.6666565V53.3333397   C512,23.8782635,488.1217346,0.0000088,458.6666565,0.0000088z" fill="#E64B3F"/><path d="M512,339.3990784L301.1383362,128.5374451l-0.0406799,0.0081329   c-13.018219-13.5025101-31.996582-21.2180099-52.7358093-18.7581558   c-29.4685516,3.495224-52.8216095,28.1279373-54.8863525,57.7311172   c-2.4103394,34.5579224,23.2149963,63.6535492,56.4122009,66.8678589v57.0354767H138.3899841v46.3730469h-26.3235703v64.8717346   L221.3997345,512h237.266922C488.1218567,512,512,488.1218567,512,458.6666565V339.3990784z" fill="#973732"/><path d="M373.60849,337.7948914v-46.3729248H262.1100464v-57.035614   c31.749054-3.0738831,56.571167-29.8167267,56.571167-62.3718262c0-34.6176147-28.063446-62.6810608-62.6816711-62.6810608   c-34.6176147,0-62.6810608,28.063446-62.6810608,62.6810608c0,32.5544891,24.8221283,59.2979431,56.5693512,62.3718262v57.035614   H138.3899994v46.3729248h-26.3236008v64.8718872h64.871254v-64.8718872h-26.3254395v-34.1506958h99.2756195v34.1506958H223.564209   v64.8718872h64.8712769v-64.8718872h-26.3254395v-34.1506958h99.2762146v34.1506958h-26.3242188v64.8718872h64.8712769v-64.8718872   H373.60849z" fill="#FFFFFF"/></g></svg>