<?xml version="1.0" encoding="UTF-8"?>
<svg width="512px" height="512px" viewBox="0 0 512 512" version="1.1" xmlns="http://www.w3.org/2000/svg"
>
    <g id="Page-1" stroke="none" stroke-width="1" fill="none" fill-rule="evenodd">
        <g id="1495050329_office-building-copy" fill-rule="nonzero">
            <g id="Layer_1">
                <path d="M458.666656,8.79999999e-06 L53.3333397,8.79999999e-06 C23.8779373,8.79999999e-06 7.6e-06,23.8789131 7.6e-06,53.3333409 L7.6e-06,458.666654 C8.8e-06,488.122375 23.8779373,512 53.3333397,512 L458.666653,512 C488.121735,512 512,488.122375 512,458.666656 L512,53.3333397 C512,23.8789139 488.121735,8.79999999e-06 458.666656,8.79999999e-06 Z"
                      id="Shape" fill="#F36C00"></path>
                <path d="M512,333.063797 L404.15918,195.083984 L372.998223,201.450745 L265.841797,108.915039 L116.165039,108.915039 L116.165039,391.248047 L218.715164,512 L458.666657,512 C488.121857,512 512,488.811815 512,460.207723 L512,333.063797 Z"
                      id="Shape-Copy-2" fill="#C05600"></path>
                <g id="Group" transform="translate(116.000000, 108.000000)" fill="#FFFFFF">
                    <path d="M288.305861,283.05376 L138.587802,283.05376 L138.587802,87.27424 L288.305861,87.27424 L288.305861,283.05376 Z M150.112554,271.53376 L276.781109,271.53376 L276.781109,98.79424 L150.112554,98.79424 L150.112554,271.53376 Z"
                          id="Shape"></path>
                    <path d="M150.008832,283.05665 L0.290772277,283.05665 L0.290772277,0.87424 L150.008832,0.87424 L150.008832,283.05665 Z M11.8155248,271.53665 L138.484079,271.53665 L138.484079,12.39424 L11.8155248,12.39424 L11.8155248,271.53665 Z"
                          id="Shape-Copy"></path>
                    <g transform="translate(28.811881, 32.560000)" id="Shape">
                        <g>
                            <path d="M29.9410792,11.98944 L5.85722772,11.98944 C2.67639604,11.98944 0.0948514851,9.40896 0.0948514851,6.22944 C0.0948514851,3.04992 2.67639604,0.46944 5.85722772,0.46944 L29.9410792,0.46944 C33.1219109,0.46944 35.7034554,3.04992 35.7034554,6.22944 C35.7034554,9.40896 33.1247921,11.98944 29.9410792,11.98944 Z"></path>
                            <path d="M86.6025248,11.98944 L62.5186733,11.98944 C59.3378416,11.98944 56.756297,9.40896 56.756297,6.22944 C56.756297,3.04992 59.3378416,0.46944 62.5186733,0.46944 L86.6025248,0.46944 C89.7833564,0.46944 92.364901,3.04992 92.364901,6.22944 C92.364901,9.40896 89.7862376,11.98944 86.6025248,11.98944 Z"></path>
                        </g>
                        <g transform="translate(0.000000, 42.320000)">
                            <path d="M29.9410792,11.78944 L5.85722772,11.78944 C2.67639604,11.78944 0.0948514851,9.20896 0.0948514851,6.02944 C0.0948514851,2.84992 2.67639604,0.26944 5.85722772,0.26944 L29.9410792,0.26944 C33.1219109,0.26944 35.7034554,2.84992 35.7034554,6.02944 C35.7034554,9.20896 33.1247921,11.78944 29.9410792,11.78944 Z"></path>
                            <path d="M86.6025248,11.78944 L62.5186733,11.78944 C59.3378416,11.78944 56.756297,9.20896 56.756297,6.02944 C56.756297,2.84992 59.3378416,0.26944 62.5186733,0.26944 L86.6025248,0.26944 C89.7833564,0.26944 92.364901,2.84992 92.364901,6.02944 C92.364901,9.20896 89.7862376,11.78944 86.6025248,11.78944 Z"></path>
                        </g>
                        <g transform="translate(0.000000, 84.520000)">
                            <path d="M29.9410792,11.71232 L5.85722772,11.71232 C2.67639604,11.71232 0.0948514851,9.13184 0.0948514851,5.95232 C0.0948514851,2.7728 2.67639604,0.19232 5.85722772,0.19232 L29.9410792,0.19232 C33.1219109,0.19232 35.7034554,2.7728 35.7034554,5.95232 C35.7034554,9.13184 33.1247921,11.71232 29.9410792,11.71232 Z"></path>
                            <path d="M86.6025248,11.71232 L62.5186733,11.71232 C59.3378416,11.71232 56.756297,9.13184 56.756297,5.95232 C56.756297,2.7728 59.3378416,0.19232 62.5186733,0.19232 L86.6025248,0.19232 C89.7833564,0.19232 92.364901,2.7728 92.364901,5.95232 C92.364901,9.13184 89.7862376,11.71232 86.6025248,11.71232 Z"></path>
                        </g>
                        <g transform="translate(0.000000, 127.720000)">
                            <path d="M29.9410792,11.71232 L5.85722772,11.71232 C2.67639604,11.71232 0.0948514851,9.13184 0.0948514851,5.95232 C0.0948514851,2.7728 2.67639604,0.19232 5.85722772,0.19232 L29.9410792,0.19232 C33.1219109,0.19232 35.7034554,2.7728 35.7034554,5.95232 C35.7034554,9.13184 33.1247921,11.71232 29.9410792,11.71232 Z"></path>
                            <path d="M86.6025248,11.71232 L62.5186733,11.71232 C59.3378416,11.71232 56.756297,9.13184 56.756297,5.95232 C56.756297,2.7728 59.3378416,0.19232 62.5186733,0.19232 L86.6025248,0.19232 C89.7833564,0.19232 92.364901,2.7728 92.364901,5.95232 C92.364901,9.13184 89.7862376,11.71232 86.6025248,11.71232 Z"></path>
                        </g>
                        <g transform="translate(0.000000, 170.920000)">
                            <path d="M29.9410792,11.71232 L5.85722772,11.71232 C2.67639604,11.71232 0.0948514851,9.13184 0.0948514851,5.95232 C0.0948514851,2.7728 2.67639604,0.19232 5.85722772,0.19232 L29.9410792,0.19232 C33.1219109,0.19232 35.7034554,2.7728 35.7034554,5.95232 C35.7034554,9.13184 33.1247921,11.71232 29.9410792,11.71232 Z"></path>
                            <path d="M86.6025248,11.71232 L62.5186733,11.71232 C59.3378416,11.71232 56.756297,9.13184 56.756297,5.95232 C56.756297,2.7728 59.3378416,0.19232 62.5186733,0.19232 L86.6025248,0.19232 C89.7833564,0.19232 92.364901,2.7728 92.364901,5.95232 C92.364901,9.13184 89.7862376,11.71232 86.6025248,11.71232 Z"></path>
                        </g>
                    </g>
                    <path d="M242.221257,283.12576 L184.571564,283.12576 L184.571564,211.58944 L242.221257,211.58944 L242.221257,283.12576 Z M196.096317,271.60576 L230.696505,271.60576 L230.696505,223.10944 L196.096317,223.10944 L196.096317,271.60576 Z"
                          id="Shape"></path>
                    <g transform="translate(167.108911, 128.600000)" id="Shape">
                        <g>
                            <path d="M30.0476832,12.31424 L5.96383168,12.31424 C2.783,12.31424 0.201455446,9.73376 0.201455446,6.55424 C0.201455446,3.37472 2.783,0.79424 5.96383168,0.79424 L30.0476832,0.79424 C33.2285149,0.79424 35.8100594,3.37472 35.8100594,6.55424 C35.8100594,9.73376 33.231396,12.31424 30.0476832,12.31424 Z"></path>
                            <path d="M86.7091287,12.31424 L62.6252772,12.31424 C59.4444455,12.31424 56.862901,9.73376 56.862901,6.55424 C56.862901,3.37472 59.4444455,0.79424 62.6252772,0.79424 L86.7091287,0.79424 C89.8899604,0.79424 92.471505,3.37472 92.471505,6.55424 C92.471505,9.73376 89.8928416,12.31424 86.7091287,12.31424 Z"></path>
                        </g>
                        <g transform="translate(0.000000, 42.200000)">
                            <path d="M30.0476832,12.23712 L5.96383168,12.23712 C2.783,12.23712 0.201455446,9.65664 0.201455446,6.47712 C0.201455446,3.2976 2.783,0.71712 5.96383168,0.71712 L30.0476832,0.71712 C33.2285149,0.71712 35.8100594,3.2976 35.8100594,6.47712 C35.8100594,9.65664 33.231396,12.23712 30.0476832,12.23712 Z"></path>
                            <path d="M86.7091287,12.23712 L62.6252772,12.23712 C59.4444455,12.23712 56.862901,9.65664 56.862901,6.47712 C56.862901,3.2976 59.4444455,0.71712 62.6252772,0.71712 L86.7091287,0.71712 C89.8899604,0.71712 92.471505,3.2976 92.471505,6.47712 C92.471505,9.65664 89.8928416,12.23712 86.7091287,12.23712 Z"></path>
                        </g>
                    </g>
                </g>
            </g>
        </g>
    </g>
</svg>